<?xml version="1.0" encoding="utf-8"?>
<!-- Generator: Adobe Illustrator 25.1.0, SVG Export Plug-In . SVG Version: 6.00 Build 0)  -->
<svg version="1.1" id="Capa_1" xmlns="http://www.w3.org/2000/svg" xmlns:xlink="http://www.w3.org/1999/xlink" x="0px" y="0px"
	 viewBox="0 0 512 512" style="enable-background:new 0 0 512 512;" xml:space="preserve">
<style type="text/css">
	.st0{fill:#E4C6C6;}
	.st1{fill:#E68FA0;}
	.st2{fill:#F4A4AC;}
	.st3{fill:#343434;}
</style>
<g>
	<path class="st0" d="M496.6,92.6C478.2,61.8,433-10.5,392.7,2.4c-17.9,5.8-27.3,24.1-31.8,46.1C300.1,13.3,216,6.9,146.5,32.2
		c-5.4-14.4-14-25.5-27.2-29.8C79-10.5,33.8,61.8,15.4,92.6c-0.3,0.4-0.5,0.9-0.8,1.3c-1.7,0.9-3,2.8-3,5.3
		C2.1,117-4.5,138.7,6.9,157.1c5.8,9.5,15.3,16.4,25.8,22c-4.3,18.4-7.3,37.1-10.5,56c-5.9,35.1-17.1,68.7-19.4,104.5
		c-2,31.1,10.6,63.3,27.8,86.9C89,506.7,192.3,519.7,278,506.8c75.5-11.4,154.4-52.4,183.2-137.9c19-56.5,10.8-123.5-0.4-181
		c17.1-7.4,35.2-15.9,44.3-30.8C517.9,136.3,507.9,111.5,496.6,92.6z"/>
	<path class="st1" d="M396.1,284c0,18.8-14.1,34.1-31.5,34.1s-31.5-15.3-31.5-34.1s14.1-34.1,31.5-34.1
		C382,249.8,396.1,265.1,396.1,284z"/>
	<path class="st1" d="M132.2,284c0,18.8-14.1,34.1-31.5,34.1S69.3,302.8,69.3,284s14.1-34.1,31.5-34.1
		C118.1,249.8,132.2,265.1,132.2,284z"/>
	<path class="st2" d="M491.7,107.5c-3-3.6-8.1-0.7-8.2,3.9c-0.9,23.3-18.2,41.7-31.2,57.9c-3.9,4.8,1.6,11.6,5.7,8.7
		c0.7,0.4,1.5,0.7,2.5,0.7C491.1,177.1,515.6,135.6,491.7,107.5z"/>
	<path class="st2" d="M59.1,172c-12.8-16.4-33.3-26.5-39.8-48.3c-0.1-2.2-0.1-4.5,0.1-6.8c0.6-7-9-7-9.7,0c-0.4,4-0.3,7.8,0,11.4v16
		c0,4.3,3.6,5.9,6.3,5c8.1,14.9,22.7,25.3,38.3,31.8C59.3,183.2,62.1,175.8,59.1,172z"/>
	<path class="st2" d="M240.7,320.7c-38-0.3-60.9,32.2-60.5,72.4c-2.1,3.1-1,9.1,3.6,9.1c38.4,0.3,76.8,3.4,114.9-4.3
		c1.9-0.4,3.8-3.1,3.5-5.3C297.7,352.9,278.4,321,240.7,320.7z"/>
	<path class="st3" d="M180.2,213.9c0-13,5.2-23.5,11.7-23.5s11.7,10.5,11.7,23.5s-5.3,23.5-11.7,23.5
		C185.4,237.4,180.2,226.9,180.2,213.9z M274.3,237.4c6.5,0,11.7-10.5,11.7-23.5s-5.3-23.5-11.7-23.5c-6.5,0-11.7,10.5-11.7,23.5
		C262.6,226.9,267.9,237.4,274.3,237.4z M505.1,157.1c-9.1,14.9-27.2,23.4-44.3,30.8c11.1,57.5,19.3,124.5,0.4,181
		C432.4,454.4,353.5,495.4,278,506.8c-85.7,12.9-189-0.1-247.4-80.2C13.4,403,0.8,370.9,2.8,339.7c2.3-35.8,13.5-69.4,19.4-104.5
		c3.2-18.8,6.3-37.6,10.5-56c-10.5-5.7-20-12.5-25.8-22c-11.3-18.5-4.8-40.1,4.7-57.9c0-2.5,1.3-4.3,3-5.3c0.2-0.4,0.5-0.9,0.8-1.3
		c18.4-31,63.5-103.3,103.8-90.3c13.2,4.3,21.8,15.4,27.2,29.8C216,6.9,300.1,13.3,360.8,48.5c4.6-22,13.9-40.3,31.8-46.1
		c40.3-13,85.4,59.3,103.9,90.2C507.9,111.5,517.9,136.3,505.1,157.1z M367.6,113.3c0.5,19.3,3.3,37.1,10.5,54.6
		c12.2,29.3,38,22.1,58.8,11.6c22.1-15.9,45.2-46,46.5-75.4c0.2-3.6,2.7-5.3,5.2-5.3c-0.1-0.2-0.2-0.5-0.4-0.7
		c-18.5-32.2-46.4-70.9-79.3-83.8C366.3-2.4,366.9,86.5,367.6,113.3z M21.7,101.7c6.1,32,30.3,56.2,51.8,77.1
		c21.1,10.8,47.8,19.1,60.3-10.9c7.3-17.5,10.1-35.3,10.5-54.6c0.7-26.8,1.3-115.7-41.4-98.9C70.1,27.3,42.2,65.9,23.7,98.1
		C23,99.3,22.4,100.5,21.7,101.7z M58.4,178.3c-17.6-17.6-35.2-37.7-43.1-62.3c-6.9,19.3-4.9,36.9,16.4,48.8
		C40.5,169.6,49.4,173.9,58.4,178.3z M457.2,221.6c-1.7-9.8-3.4-19.8-5.4-29.8c-5.6,2.5-10.9,4.9-15.5,7.5c-3.4,2-6.6-0.9-7.2-4.1
		c-13.3,5.5-27.9,8.6-40,0.8c-18.8-12-27-37-29.5-60.3c-2-18.6-4.3-48.5-0.7-75.5c-31-17.9-66-27.7-100.7-29.5
		c-35.7-1.8-73.4,1-108.2,12.7c7.6,30.4,4.9,69.8,2.4,92.3c-2.5,23.3-10.7,48.3-29.5,60.3c-12.1,7.7-26.7,4.7-40-0.8
		c-0.6,3.2-3.8,6.1-7.2,4.1c-9.5-5.5-22.1-10.1-34.3-15.8c-7.2,33.2-11.7,67-19.5,100.1c-12.2,51.7-13.2,100,20.4,141.9
		c20.9,26.1,45.6,44.4,75.1,55.6c81.6,30.9,185.8,27.7,261.3-22.2c38.3-25.3,69.8-64.1,78.7-114.8
		C464.2,304.8,464,260.8,457.2,221.6z M492.9,106.9c-2.1,26-17.9,52-36.6,70.2c8.1-4,16.1-7.9,24-12.3
		C504.9,151.1,503.8,129.6,492.9,106.9z M306.3,400.4c0,0.2-0.1,0.4-0.1,0.6c-0.1,2.1-1.1,4-3.4,4.7c-40.1,11.9-82.8,4.3-123.7,3.9
		c-4.6,0-5.7-6-3.5-9.1c-0.3-0.3-0.5-0.7-0.7-1.1c-2-1.8-3-5.4-0.8-8.3c0.1-0.1,0.1-0.2,0.2-0.3v-15.9c0-2.4,1.2-3.9,2.6-4.7
		c-0.2-6-0.2-12,1.5-16.4c3.9-9.7,8.8-18.7,16.6-25c17.4-14.1,36.7-19.4,57.9-16.2C290.8,318.2,307.6,361.3,306.3,400.4z
		 M296.6,396.1c-0.2-40.5-22-79.3-62.5-73.5c-26.4,3.8-50.3,22-48.2,55.3c0.5,7,0.3,11.4-2.1,16.1v2.7c0,0.7-0.2,1.4-0.4,1.9
		C220.8,399.6,259.9,405.8,296.6,396.1z M210.1,349.5c-2.2-0.4-4.5,0.6-5.1,3.8c-1.6,7.8-1.6,15.2,0,23c0.9,4.3,5.4,4.9,8.1,2.4
		c3.6-3.3,6.6-6.8,7-12.3c0.5-4.9-2.8-10.3-4.7-14.5C214.2,349.4,212,348.8,210.1,349.5z M262.6,349.6c-1.1-4.6-7.5-5.4-9-1
		c-1.2,0.9-2,2.2-2.1,4.3c-0.1,2-0.5,3.9-0.8,5.9c-0.1,0.2-0.1,0.3-0.2,0.5c-0.7,1.7-0.6,3.3-0.1,4.6c0,0.4,0,0.7,0.1,1
		c0.6,3.7,2.8,6.1,5.5,7.8c0.6,0.8,1.2,1.6,1.7,2.4c2.7,3.9,8.3,0.6,8.3-3.9c0-0.4-0.1-0.8-0.1-1.2c0-0.2,0.1-0.4,0.1-0.7
		C265.9,362.3,264.1,356.3,262.6,349.6z"/>
</g>
</svg>
